# xmcd
#
# Track frame offsets:
#	150
#	11652
#	25801
#	38031
#	42756
#	57109
#	73061
#	90074
#	105217
#	125558
#
# Disc length: 1826 seconds
#
# Revision: 0
# Processed by: cddbd v1.5PL3 Copyright (c) Steve Scherf et al.
# Submitted via: dBpowerAMP V4.0
#
DISCID=6e07200a
DTITLE=Remate - Deconstructin mood
DYEAR=2004
DGENRE=Blues
TTITLE0=Pontiac
TTITLE1=Sad Songs
TTITLE2=Capitains with hats
TTITLE3=Cue
TTITLE4=Cheekbones
TTITLE5=No land
TTITLE6=Walkwoman
TTITLE7=Honk of myself
TTITLE8=Homerun
TTITLE9=I got a trumpet
EXTD=
EXTT0=
EXTT1=
EXTT2=
EXTT3=
EXTT4=
EXTT5=
EXTT6=
EXTT7=
EXTT8=
EXTT9=
PLAYORDER=
